<svg xmlns="http://www.w3.org/2000/svg" version="1.1" xmlns:xlink="http://www.w3.org/1999/xlink" width="518.11517" height="514"><svg width="518.11517" height="514" viewBox="0 0 518.11517 514" version="1.1" id="SvgjsSvg1012" xml:space="preserve" inkscape:version="1.4.2 (f4327f4, 2025-05-13)" sodipodi:docname="IESAdminIco.svg" xmlns:inkscape="http://www.inkscape.org/namespaces/inkscape" xmlns:sodipodi="http://sodipodi.sourceforge.net/DTD/sodipodi-0.dtd" xmlns="http://www.w3.org/2000/svg" xmlns:svg="http://www.w3.org/2000/svg"><sodipodi:namedview id="SvgjsSodipodi:namedview1011" pagecolor="#ffffff" bordercolor="#000000" borderopacity="0.25" inkscape:showpageshadow="2" inkscape:pageopacity="0.0" inkscape:pagecheckerboard="0" inkscape:deskcolor="#d1d1d1" inkscape:document-units="px" inkscape:zoom="0.84521355" inkscape:cx="392.20857" inkscape:cy="299.33264" inkscape:window-width="2560" inkscape:window-height="1494" inkscape:window-x="-11" inkscape:window-y="-11" inkscape:window-maximized="1" inkscape:current-layer="layer1"></sodipodi:namedview><defs id="SvgjsDefs1010"></defs><g inkscape:label="Layer 1" inkscape:groupmode="layer" id="SvgjsG1009" transform="translate(2.0847671,1)"><rect style="fill:#d0d0d0;stroke:none;stroke-width:2;stroke-linejoin:bevel;paint-order:markers stroke fill;fill-opacity:0.45771813" id="SvgjsRect1008" width="518.11517" height="514" x="-2.0847671" y="-1" ry="57.973515"></rect><path style="fill:#040404;fill-opacity:1;stroke-width:0.640525" d="m 234.79494,497.39836 c -11.80148,-1.32959 -24.13979,-3.35602 -33.3073,-5.47028 -94.6986,-21.84035 -167.73922,-98.96381 -184.114216,-194.40585 -3.01475,-17.57203 -3.675592,-26.4699 -3.377507,-45.47814 0.347244,-22.11504 2.016051,-34.95313 7.271938,-55.9296 14.370734,-57.354 50.61481,-108.477719 100.474445,-141.723152 31.4741,-20.986316 64.9754,-33.423066 105.04612,-38.996471 11.51046,-1.601033 40.0012,-1.918473 52.10255,-0.580997 23.00478,2.543344 43.03546,7.190531 62.25153,14.442594 62.82113,23.708285 113.4676,72.924206 138.88777,134.964656 21.71982,53.00944 23.90265,112.38342 6.13084,166.76088 -24.0271,73.51703 -81.75236,131.21842 -155.32951,155.26511 -24.88244,8.13218 -49.23449,11.91126 -75.86013,11.77236 -8.45492,-0.0454 -17.53437,-0.32379 -20.17653,-0.62187 z m 41.72639,-30.69881 c 49.15618,-4.89874 94.06227,-26.17313 129.00609,-61.11695 32.57702,-32.57705 52.77184,-72.70157 59.96876,-119.15003 1.66467,-10.7438 2.32545,-38.19183 1.20722,-50.14628 -3.92187,-41.92634 -19.56662,-80.17111 -46.6897,-114.13659 -6.58886,-8.25107 -22.53314,-24.104879 -31.17252,-30.995679 -41.49365,-33.0955 -90.41161,-48.895925 -143.85599,-46.465134 -44.49623,2.023799 -86.08493,17.863837 -121.96179,46.452124 -8.99289,7.16595 -24.693065,22.854619 -31.960921,31.937539 -23.56767,29.45312 -38.803172,64.2234 -44.625543,101.84345 -1.970674,12.73291 -2.463397,40.89556 -0.946955,54.12429 3.510357,30.62267 12.972148,58.93955 28.410178,85.02508 14.936617,25.23835 35.768821,47.73085 60.364381,65.17525 28.60914,20.29115 64.63865,33.77606 99.88986,37.38619 7.82505,0.80141 34.57259,0.84354 42.36693,0.068 z m -28.59559,-11.94062 c -45.92481,-2.26419 -86.86409,-18.25722 -121.58536,-47.49754 -3.17801,-2.67635 -5.40801,-5.00077 -5.09646,-5.31231 0.30486,-0.30489 21.29443,-0.62792 46.64393,-0.71871 l 46.09002,-0.16414 v -3.84042 -3.84043 l -3.84315,-0.44938 c -9.82908,-1.14848 -14.87525,-2.98985 -19.25363,-7.0257 -3.35867,-3.096 -5.57765,-7.07351 -7.18376,-12.87711 -0.94459,-3.4133 -1.08492,-6.63262 -0.96584,-22.15856 0.0765,-9.99074 0.31243,-18.70993 0.52351,-19.37583 0.37372,-1.17775 2.30657,-1.21081 70.72044,-1.21081 55.51064,0 70.46706,-0.16874 70.95724,-0.8007 0.34158,-0.4403 1.87732,-10.27217 3.41272,-21.84846 1.6786,-12.6563 3.08082,-21.15879 3.51703,-21.32622 1.38703,-0.53185 32.0459,29.29221 37.4603,36.44068 10.00022,13.2032 13.31375,23.8065 12.61749,40.37636 -0.76596,18.2291 -7.10786,33.35369 -19.02024,45.36075 -18.49587,18.64281 -47.44899,25.27695 -73.36015,16.80915 -24.48958,-8.0032 -39.89811,-27.49191 -43.19867,-54.63771 -0.4055,-3.3321 -0.86221,-6.18398 -1.01564,-6.33741 -0.31243,-0.31244 -5.07643,2.86816 -5.97835,3.99173 -0.31925,0.39794 -4.66262,12.08724 -9.65153,25.97622 l -9.07081,25.25266 2.34597,3.40619 c 9.67045,14.04103 28.22089,25.00134 47.54607,28.09198 11.77058,1.88246 10.87341,1.66215 9.26212,2.27447 -1.59962,0.60827 -20.65349,1.93271 -25.14774,1.7485 -1.5853,-0.068 -4.61178,-0.20351 -6.72551,-0.30791 z M 381.60521,408.5925 c 17.26282,-19.96668 27.78506,-40.0664 31.60353,-60.36952 1.74419,-9.27394 1.64695,-22.57834 -0.21229,-29.04179 -4.30265,-14.95802 -12.91733,-25.65341 -36.96579,-45.89401 -19.83883,-16.6975 -27.73149,-25.35971 -32.97976,-36.19527 -1.70634,-3.52283 -3.60061,-8.42284 -4.20948,-10.8889 -1.44779,-5.86367 -1.44296,-18.02096 0.01,-24.87432 5.84316,-27.56279 23.20269,-44.57206 45.53171,-44.61314 15.93,-0.0303 24.39582,7.75304 28.76263,26.44034 0.84018,3.59545 1.70933,7.61812 1.93145,8.93917 0.23028,1.36984 0.77009,2.40197 1.25615,2.40197 0.46874,0 5.55005,-3.75864 11.29173,-8.35249 8.51689,-6.81426 10.59108,-8.20036 11.26283,-7.52614 1.14461,1.1487 5.50764,12.9639 8.14542,22.05809 16.25648,56.04664 6.7235,116.79427 -26.0188,165.80145 -8.96252,13.41471 -21.72401,28.00665 -33.42977,38.22482 -5.28748,4.61548 -8.30302,6.57715 -5.9795,3.88974 z M 107.57161,389.10123 C 100.0938,381.33709 90.081796,367.86043 83.697326,356.96532 67.01752,328.50145 58.025611,296.93027 56.943925,263.03316 55.361288,213.43521 71.196122,166.28643 102.11894,128.52295 c 6.93969,-8.47482 20.40439,-21.90821 21.70138,-21.65092 1.39815,0.27765 4.40147,5.90869 5.74143,10.76483 1.08529,3.93369 1.14795,10.93724 1.14795,128.42246 0,115.92101 -0.0757,124.55237 -1.11307,128.59107 -2.66744,10.37536 -8.0881,16.2264 -16.1811,17.46597 -2.44872,0.37523 -2.70737,0.24135 -5.84392,-3.01513 z m 75.7601,-64.87091 c -0.23075,-0.60069 -0.41911,-39.67204 -0.41911,-86.82475 0,-96.46971 -0.50459,-87.74529 5.07521,-87.74529 5.2997,0 9.22903,3.72785 11.43527,10.84872 1.01822,3.28642 1.10392,9.35845 1.10392,78.18425 v 74.62117 l -1.92157,3.84315 c -2.37033,4.74069 -6.02331,7.25387 -11.34131,7.80272 -2.93122,0.30262 -3.58243,0.18154 -3.93226,-0.73005 z m 66.22373,-5.90505 c -2.78182,-1.46919 -3.8268,-2.49117 -5.12418,-5.01161 l -1.62977,-3.16606 v -34.28597 -34.28602 l 3.93598,0.0604 c 7.8382,0.11569 15.44899,3.39143 20.64582,8.8863 5.51629,5.83265 8.74486,13.84379 10.69288,26.53278 l 1.09274,7.11784 h 2.15295 2.15298 v -48.35957 -48.35961 h -1.88377 c -1.03607,0 -2.03268,0.24059 -2.21464,0.53563 -0.18195,0.2943 -0.77976,3.55833 -1.32838,7.25312 -2.96181,19.94684 -9.38185,30.02264 -21.75295,34.13965 -3.6109,1.20167 -11.61577,2.33395 -12.93135,1.82913 -0.73536,-0.28221 -0.88251,-6.55802 -0.88251,-37.72863 v -37.38996 l 1.73162,-0.43424 c 0.95232,-0.23908 8.95091,-0.11569 17.77452,0.27386 23.92496,1.05657 31.11005,3.21628 39.8883,11.98971 5.44629,5.44335 9.35666,12.82765 12.03926,22.73488 0.90622,3.3467 2.09733,6.99527 2.64692,8.10791 0.95116,1.92564 0.90606,2.26465 -0.93739,7.0458 -9.83182,25.49976 -7.30681,49.06319 7.35579,68.64404 l 3.51416,4.69286 -2.01504,4.99889 c -6.68099,16.57396 -17.74466,27.34612 -32.83194,31.96675 -7.6454,2.34152 -15.26471,3.39144 -27.06808,3.72998 l -11.52946,0.33061 z m 71.37119,-126.55044 c -0.16453,-0.44029 -0.3716,-11.03309 -0.46027,-23.53928 l -0.16134,-22.73867 -68.36459,-0.16273 -68.36456,-0.16334 -0.41533,-1.65397 c -0.60748,-2.41968 0.33666,-19.74063 1.34548,-24.68248 2.29561,-11.24772 8.73938,-16.83172 20.97777,-18.17892 1.85334,-0.20426 4.59476,-0.5205 6.09193,-0.702809 l 2.72226,-0.33212 v -3.80389 -3.80396 l -34.10793,-0.0454 c -18.75942,-0.0226 -34.63116,-0.25116 -35.27065,-0.50309 -1.1233,-0.44256 -1.1233,-0.49174 0,-1.44685 2.01175,-1.7102 9.29422,-6.053876 16.89525,-10.077312 61.03661,-32.308091 135.99484,-30.280991 195.81278,5.295459 13.7805,8.195973 24.46488,16.436652 36.58002,28.213722 7.49471,7.28548 18.01267,19.0505 18.01267,20.14822 0,0.27689 -3.96325,0.51973 -8.80723,0.53941 -7.28905,0.0303 -9.8907,0.31698 -15.0928,1.66768 -24.01013,6.23483 -47.23944,25.06838 -63.26495,51.29325 -1.84093,3.01249 -3.45571,5.47732 -3.58844,5.47732 -0.13271,0 -0.37585,-0.36011 -0.54031,-0.80064 z" id="SvgjsPath1007" inkscape:connector-curvature="0" inkscape:export-xdpi="599.83917" inkscape:export-ydpi="599.83917"></path></g></svg><style>@media (prefers-color-scheme: light) { :root { filter: none; } }
@media (prefers-color-scheme: dark) { :root { filter: none; } }
</style></svg>